<svg xmlns="http://www.w3.org/2000/svg" xmlns:xlink="http://www.w3.org/1999/xlink" width="73" height="36" fill="none" viewBox="0 0 73 36"><path fill="currentColor" d="M45 29.5h3.5v-22H45v22Zm8.3 0h8.4c6.6 0 11.3-4.6 11.3-11s-4.7-11-11.3-11h-8.4v22Zm3.7-3.4V10.9h4.7c4.4 0 7.5 3.1 7.5 7.6s-3 7.6-7.5 7.6H57Z"/><path fill="#07F" d="M0 17.3C0 9 0 5 2.5 2.5 5.1 0 9.1 0 17.3 0h1.4C27 0 31 0 33.5 2.5 36 5.1 36 9.1 36 17.3v1.4c0 8.2 0 12.2-2.5 14.8C30.9 36 26.9 36 18.7 36h-1.4C9 36 5 36 2.5 33.5 0 30.9 0 26.9 0 18.7v-1.4Z"/><path fill="#FFF" d="M19.3 26c-8.1 0-13-5.6-13.2-15h4c.2 6.9 3.4 9.8 5.8 10.4V11h3.9v6c2.3-.3 4.7-3 5.5-6h4c-.7 3.7-3.3 6.4-5.2 7.5 1.9.9 4.9 3.2 6 7.5H26c-1-2.9-3.1-5-6.1-5.4V26h-.5Z"/></svg>