<svg xmlns:xlink="http://www.w3.org/1999/xlink" width="207" height="36" fill="none" xmlns="http://www.w3.org/2000/svg"><g clip-path="url(#a)" fill="#fff"><path d="M62.576 22.335c0 2.733-2.545 4.712-6.126 4.712h-8.388V10.084h8.105c3.487 0 5.937 1.885 5.937 4.524 0 1.79-.942 2.921-2.356 3.58a4.388 4.388 0 0 1 2.828 4.147Zm-10.838-9.141v3.675h4.335c1.32 0 2.167-.754 2.167-1.79 0-1.037-.942-1.885-2.167-1.885h-4.335Zm4.712 10.743c1.413 0 2.45-.848 2.45-2.073s-.942-2.073-2.45-2.073h-4.712v4.146h4.712Zm19.979 3.016-5.843-6.691h-.942v6.691h-3.77V10.084h3.77v6.503h.942l5.654-6.503h4.43l-7.068 8.105 7.727 8.764h-4.9Zm4.901-8.387c0-5.09 3.769-8.765 9.046-8.765 5.278 0 9.047 3.676 9.047 8.765s-3.77 8.764-9.047 8.764c-5.277 0-9.047-3.675-9.047-8.764Zm14.135 0c0-3.204-2.073-5.372-5.089-5.372-3.016 0-5.089 2.167-5.089 5.372 0 3.204 2.073 5.371 5.09 5.371 3.015 0 5.088-2.167 5.088-5.371Zm18.378-8.482h3.77v16.87h-3.77v-6.786h-7.539v6.785h-3.77V10.084h3.77v6.691h7.539v-6.691Zm11.874 16.869V13.477h-5.843v-3.393h15.361v3.393h-5.843v13.476h-3.675Zm25.728-9.424v9.424h-2.733l-.754-2.639c-.848 1.414-2.639 3.016-5.372 3.016-3.393 0-5.843-2.262-5.843-5.372s2.45-5.277 7.445-5.277h3.676c-.189-2.168-1.32-3.676-3.393-3.676-1.696 0-2.827.943-3.393 1.98l-3.392-.566c.848-2.921 3.769-4.618 6.973-4.618 4.147 0 6.786 2.828 6.786 7.728Zm-3.676 2.073h-3.487c-2.827 0-3.769.943-3.769 2.168 0 1.413 1.131 2.356 3.016 2.356 2.45 0 4.24-1.79 4.24-4.524Zm18.189 7.351-5.843-6.691h-.942v6.691h-3.77V10.084h3.77v6.503h.942l5.655-6.503h4.429l-7.068 8.105 7.728 8.764h-4.901Zm11.686 0V13.477h-5.843v-3.393h15.361v3.393h-5.843v13.476h-3.675Zm28.366-7.351h-13.57c.377 2.64 2.261 4.335 5.089 4.335 1.979 0 3.486-.848 4.335-2.073l3.487.566c-1.226 3.204-4.524 4.9-8.105 4.9-5.089 0-8.765-3.675-8.765-8.764 0-5.09 3.676-8.765 8.765-8.765s8.764 3.676 8.764 8.576c.094.471 0 .848 0 1.225Zm-13.288-2.921h9.33c-.66-2.074-2.356-3.581-4.712-3.581-2.262-.095-4.052 1.413-4.618 3.58Z"/></g><path d="M0 17.28C0 9.134 0 5.061 2.53 2.53 5.062 0 9.135 0 17.28 0h1.44c8.146 0 12.219 0 14.75 2.53C36 5.062 36 9.135 36 17.28v1.44c0 8.146 0 12.219-2.53 14.75C30.938 36 26.865 36 18.72 36h-1.44c-8.146 0-12.219 0-14.75-2.53C0 30.938 0 26.865 0 18.72v-1.44Z" fill="#07F"/><path d="M19.155 25.935c-8.205 0-12.885-5.625-13.08-14.985h4.11c.135 6.87 3.165 9.78 5.565 10.38V10.95h3.87v5.925c2.37-.255 4.86-2.955 5.7-5.925h3.87c-.645 3.66-3.345 6.36-5.265 7.47 1.92.9 4.995 3.255 6.165 7.515h-4.26c-.915-2.85-3.195-5.055-6.21-5.355v5.355h-.465Z" fill="#fff"/><defs><clipPath id="a"><path fill="#fff" transform="translate(48.063 9.801)" d="M0 0h157.99v17.529H0z"/></clipPath></defs></svg>