<svg xmlns:xlink="http://www.w3.org/1999/xlink" viewBox="0 0 224 500" fill="var(--color-blue-deep)" xmlns="http://www.w3.org/2000/svg" width="224"  height="500" ><path d="M47.804 0C55.9955 47.278 76.9802 90.1705 107.063 124.982H47.8057C23.3135 88.1435 6.66039 45.7065 0 0H47.804Z" fill="#005EFF"></path><path d="M47.804 125.006C55.9955 172.284 76.9802 215.177 107.063 249.988H47.8057C23.3135 213.15 6.66039 170.713 0 125.006H47.804Z" fill="#005EFF"></path><path d="M47.804 250.006C55.9955 297.284 76.9802 340.177 107.063 374.988H47.8057C23.3135 338.15 6.66039 295.713 0 250.006H47.804Z" fill="#005EFF"></path><path d="M47.804 375.018C55.9955 422.296 76.9802 465.188 107.063 500H47.8057C23.3135 463.161 6.66039 420.724 0 375.018H47.804Z" fill="#005EFF"></path><path d="M164.474 0C172.665 47.278 193.65 90.1705 223.733 124.982H164.476C139.983 88.1435 123.33 45.7065 116.67 0H164.474Z" fill="#005EFF"></path><path d="M164.474 125.006C172.665 172.284 193.65 215.177 223.733 249.988H164.476C139.983 213.15 123.33 170.713 116.67 125.006H164.474Z" fill="#005EFF"></path><path d="M164.474 250.006C172.665 297.284 193.65 340.177 223.733 374.988H164.476C139.983 338.15 123.33 295.713 116.67 250.006H164.474Z" fill="#005EFF"></path><path d="M164.474 375.018C172.665 422.296 193.65 465.188 223.733 500H164.476C139.983 463.161 123.33 420.724 116.67 375.018H164.474Z" fill="#005EFF"></path></svg>