<svg xmlns="http://www.w3.org/2000/svg" width="42" height="42" viewBox="0 0 42 42" fill="none">
<g clip-path="url(#clip0)">
<path d="M20.1382 42H21.887C31.3807 42 36.1284 42 39.0768 39.0516C42.0252 36.1032 42 31.3572 42 21.887V20.113C42 10.6445 42 5.89681 39.0768 2.94841C36.1536 8.3313e-06 31.3807 0 21.887 0H20.1382C10.6428 0 5.8968 8.3313e-06 2.9484 2.94841C-1.92261e-06 5.89681 0 10.6411 0 20.113V21.887C0 31.3572 -1.92261e-06 36.1032 2.9484 39.0516C5.8968 42 10.6428 42 20.1382 42Z" fill="#0077FF"/>
<path d="M22.5372 30.2818C13.0671 30.2818 7.31981 23.7113 7.09637 12.793H11.8928C12.0423 20.8133 15.6913 24.217 18.4885 24.9108V12.793H23.0866V19.7129C25.7847 19.4138 28.6071 16.2655 29.558 12.793H34.0788C33.3548 17.0652 30.2821 20.2135 28.1081 21.5122C30.2821 22.5622 33.7798 25.3106 35.1288 30.2818H30.1577C29.1077 26.9587 26.534 24.385 23.0866 24.0355V30.2818H22.5372Z" fill="white"/>
</g>
<defs>
<clipPath id="clip0">
<rect width="42" height="42" fill="white"/>
</clipPath>
</defs>
</svg>